<?xml version="1.0" encoding="UTF-8"?>
<svg xmlns="http://www.w3.org/2000/svg" xmlns:xlink="http://www.w3.org/1999/xlink" viewBox="0 0 128 128" width="128px" height="128px">
<g id="surface33645946">
<path style=" stroke:none;fill-rule:nonzero;fill:rgb(9.803922%,9.803922%,43.921569%);fill-opacity:1;" d="M 124 31.5 L 64 10.199219 L 4 31.5 L 4 96.5 L 64 117.800781 L 124 96.5 Z M 124 31.5 "/>
<path style=" stroke:none;fill-rule:nonzero;fill:rgb(9.803922%,9.803922%,43.921569%);fill-opacity:1;" d="M 124 31.5 L 64 10.199219 L 4 31.5 L 4 96.5 L 64 117.800781 L 124 96.5 Z M 124 31.5 L 64 10.199219 "/>
<path style=" stroke:none;fill-rule:nonzero;fill:rgb(10.588235%,14.117648%,25.882354%);fill-opacity:1;" d="M 64 120.800781 C 63.699219 120.800781 63.300781 120.699219 63 120.601562 L 3 99.300781 C 1.800781 98.898438 1 97.699219 1 96.5 L 1 31.5 C 1 30.199219 1.800781 29.101562 3 28.699219 L 63 7.398438 C 64.601562 6.800781 66.300781 7.699219 66.800781 9.199219 C 67.398438 10.800781 66.5 12.5 65 13 L 7 33.601562 L 7 94.398438 L 65 114.898438 C 66.601562 115.5 67.398438 117.199219 66.800781 118.699219 C 66.398438 120 65.199219 120.800781 64 120.800781 Z M 64 120.800781 "/>
<path style=" stroke:none;fill-rule:nonzero;fill:rgb(9.803922%,9.803922%,43.921569%);fill-opacity:1;" d="M 124 31.5 L 64 10.199219 M 124 31.5 L 64 10.199219 "/>
<path style=" stroke:none;fill-rule:nonzero;fill:rgb(10.588235%,14.117648%,25.882354%);fill-opacity:1;" d="M 127 31.5 C 127 30.300781 126.199219 29.101562 125 28.699219 L 91.199219 16.699219 C 90.398438 16.398438 89.601562 16.5 88.898438 16.800781 C 87.800781 17.300781 29 38.101562 29 38.101562 C 27.5 38.601562 26.5 40 26.5 41.601562 L 26.5 55.601562 C 26.5 56.898438 27.300781 58 28.5 58.398438 L 36.300781 61.199219 C 38.300781 61.898438 40.300781 60.5 40.300781 58.398438 L 40.300781 46.699219 C 40.300781 45.101562 41.300781 43.699219 42.800781 43.199219 L 95.898438 24.800781 L 115.101562 31.601562 L 63 49.898438 C 61.898438 50.300781 61 51.398438 61 52.699219 L 61 113.5 L 7 94.398438 L 7 33.601562 L 65 13.101562 C 66.601562 12.5 67.398438 10.800781 66.800781 9.300781 C 66.199219 7.699219 64.5 6.898438 63 7.5 L 3 28.699219 C 1.800781 29.101562 1 30.300781 1 31.5 L 1 96.5 C 1 97.800781 1.800781 98.898438 3 99.300781 L 63 120.5 C 63.300781 120.601562 63.699219 120.699219 64 120.699219 C 64.300781 120.699219 64.699219 120.601562 65 120.5 L 125 99.300781 C 126.199219 98.898438 127 97.699219 127 96.5 Z M 127 31.5 "/>
</g>
</svg>
