<?xml version="1.0" encoding="UTF-8"?>
<svg xmlns="http://www.w3.org/2000/svg" xmlns:xlink="http://www.w3.org/1999/xlink" viewBox="0 0 256 256" width="256px" height="256px">
<g id="surface20466589">
<path style=" stroke:none;fill-rule:nonzero;fill:rgb(9.803922%,9.803922%,43.921569%);fill-opacity:1;" d="M 248 63 L 128 20.398438 L 8 63 L 8 193 L 128 235.601562 L 248 193 Z M 248 63 "/>
<path style=" stroke:none;fill-rule:nonzero;fill:rgb(9.803922%,9.803922%,43.921569%);fill-opacity:1;" d="M 248 63 L 128 20.398438 L 8 63 L 8 193 L 128 235.601562 L 248 193 Z M 248 63 L 128 20.398438 "/>
<path style=" stroke:none;fill-rule:nonzero;fill:rgb(10.588235%,14.117648%,25.882354%);fill-opacity:1;" d="M 128 241.601562 C 127.398438 241.601562 126.601562 241.398438 126 241.199219 L 6 198.601562 C 3.601562 197.800781 2 195.398438 2 193 L 2 63 C 2 60.398438 3.601562 58.199219 6 57.398438 L 126 14.800781 C 129.199219 13.601562 132.601562 15.398438 133.601562 18.398438 C 134.800781 21.601562 133 25 130 26 L 14 67.199219 L 14 188.800781 L 130 229.800781 C 133.199219 231 134.800781 234.398438 133.601562 237.398438 C 132.800781 240 130.398438 241.601562 128 241.601562 Z M 128 241.601562 "/>
<path style=" stroke:none;fill-rule:nonzero;fill:rgb(9.803922%,9.803922%,43.921569%);fill-opacity:1;" d="M 248 63 L 128 20.398438 M 248 63 L 128 20.398438 "/>
<path style=" stroke:none;fill-rule:nonzero;fill:rgb(10.588235%,14.117648%,25.882354%);fill-opacity:1;" d="M 254 63 C 254 60.601562 252.398438 58.199219 250 57.398438 L 182.398438 33.398438 C 180.800781 32.800781 179.199219 33 177.800781 33.601562 C 175.601562 34.601562 58 76.199219 58 76.199219 C 55 77.199219 53 80 53 83.199219 L 53 111.199219 C 53 113.800781 54.601562 116 57 116.800781 L 72.601562 122.398438 C 76.601562 123.800781 80.601562 121 80.601562 116.800781 L 80.601562 93.398438 C 80.601562 90.199219 82.601562 87.398438 85.601562 86.398438 L 191.800781 49.601562 L 230.199219 63.199219 L 126 99.800781 C 123.800781 100.601562 122 102.800781 122 105.398438 L 122 227 L 14 188.800781 L 14 67.199219 L 130 26.199219 C 133.199219 25 134.800781 21.601562 133.601562 18.601562 C 132.398438 15.398438 129 13.800781 126 15 L 6 57.398438 C 3.601562 58.199219 2 60.601562 2 63 L 2 193 C 2 195.601562 3.601562 197.800781 6 198.601562 L 126 241 C 126.601562 241.199219 127.398438 241.398438 128 241.398438 C 128.601562 241.398438 129.398438 241.199219 130 241 L 250 198.601562 C 252.398438 197.800781 254 195.398438 254 193 Z M 254 63 "/>
</g>
</svg>
